<?xml version="1.0" standalone="no"?><!DOCTYPE svg PUBLIC "-//W3C//DTD SVG 1.1//EN" "http://www.w3.org/Graphics/SVG/1.1/DTD/svg11.dtd"><svg t="1587559544027" class="icon" viewBox="0 0 1024 1024" version="1.1" xmlns="http://www.w3.org/2000/svg" p-id="16392" xmlns:xlink="http://www.w3.org/1999/xlink" width="200" height="200"><defs><style type="text/css"></style></defs><path d="M221.1 408.4c58.4 0 106 47.6 106 106s-47.6 106-106 106-106-47.6-106-106 47.5-106 106-106m0-64c-93.9 0-170 76.1-170 170s76.1 170 170 170 170-76.1 170-170-76.1-170-170-170zM804.1 748c58.4 0 106 47.6 106 106s-47.6 106-106 106-106-47.6-106-106 47.5-106 106-106m0-64c-93.9 0-170 76.1-170 170s76.1 170 170 170 170-76.1 170-170-76.1-170-170-170zM804.1 64c58.4 0 106 47.6 106 106s-47.6 106-106 106-106-47.6-106-106 47.5-106 106-106m0-64c-93.9 0-170 76.1-170 170s76.1 170 170 170 170-76.1 170-170S898 0 804.1 0z" fill="#1296db" p-id="16393"></path><path d="M697.7 206l-388 242.4 34.1 54.5 387.9-242.4-34-54.5zM343.8 525.2l-34.1 54.5 388 242.5 34-54.5-387.9-242.5z" fill="#1296db" p-id="16394"></path></svg>