<?xml version="1.0" standalone="no"?><!DOCTYPE svg PUBLIC "-//W3C//DTD SVG 1.1//EN" "http://www.w3.org/Graphics/SVG/1.1/DTD/svg11.dtd"><svg t="1587557722000" class="icon" viewBox="0 0 1024 1024" version="1.1" xmlns="http://www.w3.org/2000/svg" p-id="9421" xmlns:xlink="http://www.w3.org/1999/xlink" width="200" height="200"><defs><style type="text/css"></style></defs><path d="M480 894.688V736a32 32 0 0 1 64 0v158.688c186.56-15.392 335.296-164.16 350.688-350.688H736a32 32 0 0 1 0-64h158.688C879.296 293.44 730.528 144.704 544 129.312V288a32 32 0 0 1-64 0V129.312C293.44 144.704 144.704 293.472 129.312 480H288a32 32 0 0 1 0 64H129.312C144.704 730.56 293.472 879.296 480 894.688zM512 960C264.576 960 64 759.424 64 512S264.576 64 512 64s448 200.576 448 448-200.576 448-448 448z" fill="#1296db" p-id="9422"></path></svg>