<?xml version="1.0" standalone="no"?><!DOCTYPE svg PUBLIC "-//W3C//DTD SVG 1.1//EN" "http://www.w3.org/Graphics/SVG/1.1/DTD/svg11.dtd"><svg t="1577431875939" class="icon" viewBox="0 0 1024 1024" version="1.1" xmlns="http://www.w3.org/2000/svg" p-id="2536" width="300" height="300" xmlns:xlink="http://www.w3.org/1999/xlink"><defs><style type="text/css"></style></defs><path d="M512 64L128 192v384c0 212.1 171.9 384 384 384s384-171.9 384-384V192L512 64z m312 512c0 172.3-139.7 312-312 312S200 748.3 200 576V246l312-110 312 110v330z" p-id="2537" fill="#ffffff"></path><path d="M378.4 475.1a35.91 35.91 0 0 0-50.9 0 35.91 35.91 0 0 0 0 50.9l129.4 129.4 2.1 2.1a33.98 33.98 0 0 0 48.1 0L730.6 434a33.98 33.98 0 0 0 0-48.1l-2.8-2.8a33.98 33.98 0 0 0-48.1 0L483 579.7 378.4 475.1z" p-id="2538" fill="#ffffff"></path></svg>