<?xml version="1.0" standalone="no"?><!DOCTYPE svg PUBLIC "-//W3C//DTD SVG 1.1//EN" "http://www.w3.org/Graphics/SVG/1.1/DTD/svg11.dtd"><svg t="1587559323466" class="icon" viewBox="0 0 1024 1024" version="1.1" xmlns="http://www.w3.org/2000/svg" p-id="12610" xmlns:xlink="http://www.w3.org/1999/xlink" width="200" height="200"><defs><style type="text/css"></style></defs><path d="M374 686C207.2 686 71.6 550.3 71.6 383.6S207.2 81.1 374 81.1c166.8 0 302.5 135.7 302.5 302.4S540.8 686 374 686z m0-522.7c-121.4 0-220.3 98.8-220.3 220.3 0 121.5 98.8 220.3 220.3 220.3 121.5 0 220.3-98.8 220.3-220.3 0-121.5-98.8-220.3-220.3-220.3z" fill="#1296db" p-id="12611" data-spm-anchor-id="a313x.7781069.0.i34" class="selected"></path><path d="M843.8 930.8L635.4 722.4c-16-16-16-42.1 0-58.1s42.1-16 58.1 0l208.4 208.4c16 16 16 42.1 0 58.1-16.1 16.1-42.1 16.1-58.1 0z" fill="#1296db" p-id="12612" data-spm-anchor-id="a313x.7781069.0.i35" class="selected"></path></svg>